0
SECTION
2
HEADER
9
$ACADVER
1
AC1002
9
$INSUNITS
70
4
0
ENDSEC
0
SECTION
2
TABLES
0
TABLE
2
LTYPE
70
1
0
LTYPE
2
DASH
70
0
3
---
72
65
73
2
40
0.6
49
0.3
49
-0.3
0
ENDTAB
0
ENDSEC
0
SECTION
2
ENTITIES
0
POLYLINE
66
1
8
Gray
62
9
0
VERTEX
8
Gray
10
49.84
20
51.11
0
VERTEX
8
Gray
10
49.88
20
50.71
0
VERTEX
8
Gray
10
49.96
20
50.63
0
VERTEX
8
Gray
10
50.12
20
50.59
0
SEQEND
0
POLYLINE
66
1
8
Gray
62
9
0
VERTEX
8
Gray
10
50
20
51.79
0
VERTEX
8
Gray
10
49.88
20
51.27
0
SEQEND
0
POLYLINE
66
1
8
Blue
62
5
0
VERTEX
8
Blue
10
65.04
20
42.59
0
VERTEX
8
Blue
10
64.94
20
42.39
0
VERTEX
8
Blue
10
66.14
20
41.59
0
VERTEX
8
Blue
10
66.74
20
40.69
0
SEQEND
0
POLYLINE
66
1
8
Blue
62
5
0
VERTEX
8
Blue
10
65.94
20
42.19
0
VERTEX
8
Blue
10
65.84
20
41.69
0
VERTEX
8
Blue
10
66.54
20
40.79
0
VERTEX
8
Blue
10
67.04
20
39.79
0
VERTEX
8
Blue
10
67.54
20
39.39
0
VERTEX
8
Blue
10
67.54
20
39.09
0
VERTEX
8
Blue
10
67.74
20
39.09
0
VERTEX
8
Blue
10
67.94
20
38.79
0
VERTEX
8
Blue
10
68.44
20
38.49
0
VERTEX
8
Blue
10
68.54
20
37.99
0
VERTEX
8
Blue
10
68.54
20
38.29
0
VERTEX
8
Blue
10
68.94
20
38.09
0
SEQEND
0
POLYLINE
66
1
8
Black
62
0
0
VERTEX
8
Black
10
60.84
20
49.59
0
VERTEX
8
Black
10
60.94
20
49.29
0
VERTEX
8
Black
10
62.84
20
47.39
0
VERTEX
8
Black
10
63.04
20
47.49
0
VERTEX
8
Black
10
63.34
20
47.29
0
VERTEX
8
Black
10
63.34
20
47.09
0
VERTEX
8
Black
10
63.64
20
47.09
0
VERTEX
8
Black
10
63.94
20
46.79
0
VERTEX
8
Black
10
64.24
20
46.89
0
VERTEX
8
Black
10
64.84
20
46.69
0
VERTEX
8
Black
10
65.14
20
46.09
0
VERTEX
8
Black
10
65.14
20
46.49
0
VERTEX
8
Black
10
65.84
20
45.89
0
VERTEX
8
Black
10
65.94
20
45.59
0
VERTEX
8
Black
10
66.44
20
45.29
0
VERTEX
8
Black
10
66.84
20
44.59
0
VERTEX
8
Black
10
67.14
20
44.39
0
VERTEX
8
Black
10
67.04
20
44.09
0
VERTEX
8
Black
10
67.24
20
44.09
0
VERTEX
8
Black
10
67.34
20
43.79
0
VERTEX
8
Black
10
67.54
20
43.69
0
VERTEX
8
Black
10
67.74
20
42.99
0
VERTEX
8
Black
10
67.74
20
43.39
0
VERTEX
8
Black
10
68.24
20
42.49
0
VERTEX
8
Black
10
68.24
20
42.19
0
VERTEX
8
Black
10
68.54
20
41.89
0
VERTEX
8
Black
10
68.54
20
41.69
0
VERTEX
8
Black
10
68.74
20
41.49
0
VERTEX
8
Black
10
68.74
20
41.19
0
VERTEX
8
Black
10
69.04
20
40.79
0
VERTEX
8
Black
10
68.94
20
40.49
0
VERTEX
8
Black
10
69.14
20
40.09
0
VERTEX
8
Black
10
69.14
20
39.59
0
VERTEX
8
Black
10
69.34
20
38.99
0
VERTEX
8
Black
10
69.34
20
39.19
0
VERTEX
8
Black
10
69.64
20
38.69
0
SEQEND
0
POLYLINE
66
1
8
Black
62
0
0
VERTEX
8
Black
10
60.34
20
49.59
0
VERTEX
8
Black
10
60.64
20
50.09
0
VERTEX
8
Black
10
61.74
20
51.99
0
VERTEX
8
Black
10
62.74
20
53.49
0
VERTEX
8
Black
10
63.74
20
55.39
0
VERTEX
8
Black
10
64.04
20
55.69
0
VERTEX
8
Black
10
64.04
20
55.99
0
VERTEX
8
Black
10
64.44
20
56.49
0
VERTEX
8
Black
10
65.24
20
58.29
0
VERTEX
8
Black
10
65.44
20
58.79
0
VERTEX
8
Black
10
65.74
20
59.29
0
VERTEX
8
Black
10
66.04
20
59.99
0
VERTEX
8
Black
10
67.24
20
61.69
0
VERTEX
8
Black
10
67.34
20
61.99
0
VERTEX
8
Black
10
67.54
20
62.09
0
VERTEX
8
Black
10
67.34
20
62.29
0
VERTEX
8
Black
10
67.74
20
62.69
0
VERTEX
8
Black
10
67.84
20
63.09
0
VERTEX
8
Black
10
68.14
20
63.59
0
VERTEX
8
Black
10
68.14
20
63.89
0
VERTEX
8
Black
10
68.74
20
64.89
0
VERTEX
8
Black
10
68.74
20
65.39
0
VERTEX
8
Black
10
69.34
20
66.89
0
VERTEX
8
Black
10
69.44
20
67.29
0
VERTEX
8
Black
10
69.64
20
67.59
0
VERTEX
8
Black
10
69.94
20
67.59
0
VERTEX
8
Black
10
69.64
20
67.69
0
VERTEX
8
Black
10
70.84
20
68.89
0
VERTEX
8
Black
10
70.94
20
69.19
0
VERTEX
8
Black
10
70.94
20
68.89
0
VERTEX
8
Black
10
71.04
20
69.19
0
SEQEND
0
POLYLINE
66
1
8
Blue
62
5
0
VERTEX
8
Blue
10
57.6
20
46.31
0
VERTEX
8
Blue
10
57.84
20
46.25
0
VERTEX
8
Blue
10
58.02
20
46.07
0
VERTEX
8
Blue
10
58.2
20
46.07
0
VERTEX
8
Blue
10
58.5
20
46.01
0
VERTEX
8
Blue
10
58.68
20
45.77
0
VERTEX
8
Blue
10
58.8
20
45.83
0
VERTEX
8
Blue
10
59.16
20
45.65
0
VERTEX
8
Blue
10
59.34
20
45.65
0
VERTEX
8
Blue
10
59.64
20
45.41
0
VERTEX
8
Blue
10
59.82
20
45.41
0
VERTEX
8
Blue
10
60
20
45.23
0
VERTEX
8
Blue
10
60.36
20
45.17
0
VERTEX
8
Blue
10
61.32
20
44.51
0
VERTEX
8
Blue
10
61.38
20
44.33
0
VERTEX
8
Blue
10
61.5
20
44.45
0
VERTEX
8
Blue
10
61.8
20
44.21
0
VERTEX
8
Blue
10
62.34
20
43.97
0
VERTEX
8
Blue
10
63
20
43.49
0
VERTEX
8
Blue
10
63.18
20
43.43
0
VERTEX
8
Blue
10
63.3
20
43.19
0
VERTEX
8
Blue
10
63.48
20
43.19
0
VERTEX
8
Blue
10
63.54
20
43.01
0
VERTEX
8
Blue
10
63.66
20
43.01
0
VERTEX
8
Blue
10
63.96
20
42.77
0
VERTEX
8
Blue
10
64.08
20
42.77
0
VERTEX
8
Blue
10
64.5
20
42.41
0
VERTEX
8
Blue
10
64.68
20
42.41
0
VERTEX
8
Blue
10
64.86
20
42.23
0
VERTEX
8
Blue
10
64.98
20
42.23
0
VERTEX
8
Blue
10
65.34
20
41.93
0
SEQEND
0
POLYLINE
66
1
8
Black
62
0
0
VERTEX
8
Black
10
53.94
20
51.05
0
VERTEX
8
Black
10
54
20
50.87
0
VERTEX
8
Black
10
54
20
51.29
0
VERTEX
8
Black
10
54.12
20
51.41
0
VERTEX
8
Black
10
54.12
20
51.23
0
VERTEX
8
Black
10
54.18
20
51.41
0
VERTEX
8
Black
10
54.36
20
51.47
0
VERTEX
8
Black
10
54.24
20
51.47
0
VERTEX
8
Black
10
54.24
20
51.35
0
VERTEX
8
Black
10
54.3
20
51.65
0
VERTEX
8
Black
10
54.42
20
51.65
0
VERTEX
8
Black
10
54.42
20
51.83
0
VERTEX
8
Black
10
54.54
20
52.07
0
VERTEX
8
Black
10
54.54
20
52.37
0
VERTEX
8
Black
10
54.9
20
53.27
0
VERTEX
8
Black
10
55.08
20
53.51
0
VERTEX
8
Black
10
55.2
20
53.81
0
VERTEX
8
Black
10
55.2
20
54.53
0
VERTEX
8
Black
10
55.32
20
54.83
0
VERTEX
8
Black
10
55.32
20
55.13
0
VERTEX
8
Black
10
55.56
20
55.85
0
VERTEX
8
Black
10
55.68
20
56.03
0
VERTEX
8
Black
10
55.92
20
57.11
0
VERTEX
8
Black
10
55.92
20
57.41
0
VERTEX
8
Black
10
56.16
20
58.19
0
VERTEX
8
Black
10
56.58
20
59.21
0
VERTEX
8
Black
10
56.7
20
60.35
0
VERTEX
8
Black
10
56.7
20
60.77
0
VERTEX
8
Black
10
56.94
20
61.91
0
VERTEX
8
Black
10
57.06
20
62.15
0
VERTEX
8
Black
10
57.06
20
62.33
0
VERTEX
8
Black
10
57.12
20
62.57
0
VERTEX
8
Black
10
57.12
20
62.75
0
VERTEX
8
Black
10
57.24
20
63.29
0
VERTEX
8
Black
10
57.24
20
63.59
0
VERTEX
8
Black
10
57.3
20
63.95
0
VERTEX
8
Black
10
57.24
20
64.73
0
VERTEX
8
Black
10
57.12
20
65.27
0
VERTEX
8
Black
10
57.12
20
65.87
0
VERTEX
8
Black
10
57.24
20
65.99
0
VERTEX
8
Black
10
57.3
20
66.59
0
VERTEX
8
Black
10
57.48
20
67.01
0
VERTEX
8
Black
10
57.48
20
67.31
0
VERTEX
8
Black
10
57.6
20
67.61
0
VERTEX
8
Black
10
57.6
20
67.79
0
VERTEX
8
Black
10
57.72
20
68.21
0
VERTEX
8
Black
10
57.72
20
68.51
0
VERTEX
8
Black
10
57.66
20
68.75
0
VERTEX
8
Black
10
57.66
20
69.05
0
VERTEX
8
Black
10
57.66
20
69.05
0
SEQEND
0
POLYLINE
66
1
8
Black
62
0
0
VERTEX
8
Black
10
36.72
20
42.47
0
VERTEX
8
Black
10
37.08
20
43.07
0
VERTEX
8
Black
10
37.38
20
43.25
0
VERTEX
8
Black
10
37.68
20
43.79
0
VERTEX
8
Black
10
37.68
20
43.79
0
VERTEX
8
Black
10
37.74
20
44.15
0
VERTEX
8
Black
10
38.16
20
44.81
0
VERTEX
8
Black
10
38.46
20
45.35
0
VERTEX
8
Black
10
38.64
20
45.59
0
VERTEX
8
Black
10
38.64
20
45.77
0
VERTEX
8
Black
10
38.82
20
45.95
0
VERTEX
8
Black
10
38.76
20
46.07
0
VERTEX
8
Black
10
38.88
20
46.55
0
VERTEX
8
Black
10
39.06
20
46.79
0
VERTEX
8
Black
10
39.24
20
47.09
0
VERTEX
8
Black
10
39.42
20
47.39
0
VERTEX
8
Black
10
39.6
20
47.51
0
VERTEX
8
Black
10
39.66
20
47.75
0
VERTEX
8
Black
10
40.32
20
48.41
0
VERTEX
8
Black
10
40.68
20
48.71
0
VERTEX
8
Black
10
40.86
20
48.71
0
VERTEX
8
Black
10
41.16
20
48.89
0
VERTEX
8
Black
10
41.76
20
49.31
0
VERTEX
8
Black
10
42.06
20
49.37
0
VERTEX
8
Black
10
42.18
20
49.49
0
VERTEX
8
Black
10
42.66
20
49.61
0
VERTEX
8
Black
10
42.72
20
49.43
0
VERTEX
8
Black
10
42.72
20
49.67
0
VERTEX
8
Black
10
42.84
20
49.61
0
VERTEX
8
Black
10
42.96
20
49.67
0
VERTEX
8
Black
10
43.5
20
49.67
0
VERTEX
8
Black
10
43.62
20
49.49
0
VERTEX
8
Black
10
43.62
20
49.49
0
VERTEX
8
Black
10
43.62
20
49.73
0
VERTEX
8
Black
10
43.74
20
49.67
0
VERTEX
8
Black
10
44.1
20
49.85
0
VERTEX
8
Black
10
44.4
20
49.79
0
VERTEX
8
Black
10
44.64
20
49.85
0
VERTEX
8
Black
10
45.48
20
49.85
0
VERTEX
8
Black
10
45.54
20
49.73
0
VERTEX
8
Black
10
45.6
20
49.85
0
VERTEX
8
Black
10
46.14
20
49.91
0
VERTEX
8
Black
10
46.32
20
49.91
0
VERTEX
8
Black
10
46.44
20
49.85
0
VERTEX
8
Black
10
46.68
20
49.91
0
VERTEX
8
Black
10
47.64
20
49.91
0
VERTEX
8
Black
10
47.76
20
50.03
0
VERTEX
8
Black
10
49.14
20
50.03
0
VERTEX
8
Black
10
49.98
20
50.21
0
VERTEX
8
Black
10
50.16
20
50.21
0
VERTEX
8
Black
10
50.4
20
50.27
0
VERTEX
8
Black
10
50.52
20
50.09
0
VERTEX
8
Black
10
50.46
20
50.33
0
VERTEX
8
Black
10
50.82
20
50.39
0
VERTEX
8
Black
10
50.94
20
50.57
0
VERTEX
8
Black
10
51.24
20
50.63
0
VERTEX
8
Black
10
51.36
20
50.75
0
VERTEX
8
Black
10
51.6
20
50.75
0
VERTEX
8
Black
10
51.72
20
50.69
0
VERTEX
8
Black
10
51.78
20
50.81
0
VERTEX
8
Black
10
52.2
20
50.81
0
VERTEX
8
Black
10
52.44
20
50.87
0
VERTEX
8
Black
10
52.56
20
50.87
0
VERTEX
8
Black
10
52.62
20
50.75
0
VERTEX
8
Black
10
52.68
20
50.87
0
VERTEX
8
Black
10
52.92
20
50.81
0
VERTEX
8
Black
10
53.16
20
50.75
0
VERTEX
8
Black
10
53.46
20
50.81
0
VERTEX
8
Black
10
53.64
20
50.81
0
VERTEX
8
Black
10
53.76
20
50.75
0
SEQEND
0
POLYLINE
66
1
8
Blue
62
5
0
VERTEX
8
Blue
10
39.54
20
36.29
0
VERTEX
8
Blue
10
39.66
20
36.23
0
VERTEX
8
Blue
10
40.2
20
36.23
0
VERTEX
8
Blue
10
40.56
20
36.35
0
VERTEX
8
Blue
10
40.68
20
36.29
0
VERTEX
8
Blue
10
41.16
20
36.53
0
VERTEX
8
Blue
10
41.88
20
36.65
0
VERTEX
8
Blue
10
42.18
20
36.83
0
VERTEX
8
Blue
10
42.36
20
36.83
0
VERTEX
8
Blue
10
42.48
20
36.95
0
VERTEX
8
Blue
10
42.72
20
36.95
0
VERTEX
8
Blue
10
42.9
20
37.19
0
VERTEX
8
Blue
10
43.38
20
37.37
0
VERTEX
8
Blue
10
43.92
20
37.73
0
VERTEX
8
Blue
10
44.22
20
37.91
0
VERTEX
8
Blue
10
44.28
20
38.03
0
VERTEX
8
Blue
10
44.4
20
38.03
0
VERTEX
8
Blue
10
45.12
20
38.45
0
VERTEX
8
Blue
10
45.18
20
38.57
0
VERTEX
8
Blue
10
45.54
20
38.75
0
VERTEX
8
Blue
10
45.78
20
38.93
0
VERTEX
8
Blue
10
45.9
20
38.93
0
VERTEX
8
Blue
10
46.2
20
39.11
0
VERTEX
8
Blue
10
46.32
20
39.05
0
VERTEX
8
Blue
10
46.38
20
38.87
0
VERTEX
8
Blue
10
46.68
20
39.17
0
VERTEX
8
Blue
10
46.98
20
39.35
0
VERTEX
8
Blue
10
47.46
20
40.07
0
VERTEX
8
Blue
10
47.58
20
40.49
0
VERTEX
8
Blue
10
47.7
20
40.67
0
VERTEX
8
Blue
10
47.7
20
40.79
0
VERTEX
8
Blue
10
47.76
20
40.67
0
VERTEX
8
Blue
10
47.76
20
40.91
0
VERTEX
8
Blue
10
48.3
20
41.45
0
VERTEX
8
Blue
10
48.78
20
42.17
0
VERTEX
8
Blue
10
48.9
20
42.29
0
VERTEX
8
Blue
10
49.08
20
42.29
0
VERTEX
8
Blue
10
49.14
20
42.47
0
VERTEX
8
Blue
10
49.44
20
42.65
0
VERTEX
8
Blue
10
49.68
20
42.83
0
VERTEX
8
Blue
10
49.8
20
42.83
0
VERTEX
8
Blue
10
49.98
20
42.95
0
VERTEX
8
Blue
10
50.1
20
42.89
0
VERTEX
8
Blue
10
50.22
20
43.01
0
VERTEX
8
Blue
10
50.52
20
43.07
0
VERTEX
8
Blue
10
51.12
20
43.43
0
VERTEX
8
Blue
10
51.24
20
43.61
0
VERTEX
8
Blue
10
51.42
20
43.61
0
VERTEX
8
Blue
10
51.66
20
43.85
0
VERTEX
8
Blue
10
52.2
20
44.15
0
VERTEX
8
Blue
10
52.26
20
44.27
0
VERTEX
8
Blue
10
53.28
20
44.81
0
VERTEX
8
Blue
10
53.46
20
44.81
0
VERTEX
8
Blue
10
53.7
20
44.99
0
VERTEX
8
Blue
10
53.88
20
44.99
0
VERTEX
8
Blue
10
54.12
20
45.17
0
VERTEX
8
Blue
10
54.3
20
45.17
0
VERTEX
8
Blue
10
54.3
20
45.23
0
VERTEX
8
Blue
10
54.6
20
45.35
0
VERTEX
8
Blue
10
54.72
20
45.47
0
VERTEX
8
Blue
10
54.84
20
45.41
0
VERTEX
8
Blue
10
54.96
20
45.47
0
VERTEX
8
Blue
10
55.02
20
45.35
0
VERTEX
8
Blue
10
55.02
20
45.59
0
VERTEX
8
Blue
10
55.38
20
45.59
0
VERTEX
8
Blue
10
55.5
20
45.71
0
VERTEX
8
Blue
10
55.98
20
45.77
0
VERTEX
8
Blue
10
56.16
20
45.89
0
VERTEX
8
Blue
10
56.34
20
45.89
0
VERTEX
8
Blue
10
56.34
20
46.01
0
VERTEX
8
Blue
10
57.36
20
46.31
0
VERTEX
8
Blue
10
57.42
20
46.13
0
VERTEX
8
Blue
10
57.42
20
46.13
0
VERTEX
8
Blue
10
57.42
20
46.31
0
SEQEND
0
POLYLINE
66
1
8
Black
62
0
0
VERTEX
8
Black
10
36
20
33.65
0
VERTEX
8
Black
10
36.36
20
34.01
0
VERTEX
8
Black
10
36.78
20
34.31
0
VERTEX
8
Black
10
36.96
20
34.31
0
VERTEX
8
Black
10
37.02
20
34.49
0
VERTEX
8
Black
10
38.28
20
35.33
0
VERTEX
8
Black
10
38.46
20
35.51
0
VERTEX
8
Black
10
38.64
20
35.51
0
VERTEX
8
Black
10
38.7
20
35.69
0
VERTEX
8
Black
10
38.88
20
35.69
0
VERTEX
8
Black
10
39
20
35.87
0
VERTEX
8
Black
10
39.12
20
35.87
0
VERTEX
8
Black
10
39.24
20
36.11
0
VERTEX
8
Black
10
39.36
20
36.05
0
VERTEX
8
Black
10
39.48
20
36.29
0
VERTEX
8
Black
10
39.72
20
36.35
0
SEQEND
0
POLYLINE
66
1
8
Black
62
0
0
VERTEX
8
Black
10
23.76
20
42.77
0
VERTEX
8
Black
10
24.06
20
43.01
0
VERTEX
8
Black
10
24.48
20
43.01
0
VERTEX
8
Black
10
25.38
20
43.25
0
VERTEX
8
Black
10
25.68
20
43.19
0
VERTEX
8
Black
10
26.88
20
43.07
0
VERTEX
8
Black
10
27.48
20
42.95
0
VERTEX
8
Black
10
27.78
20
42.95
0
VERTEX
8
Black
10
28.02
20
42.77
0
VERTEX
8
Black
10
28.14
20
42.77
0
VERTEX
8
Black
10
28.62
20
42.53
0
VERTEX
8
Black
10
28.8
20
42.23
0
VERTEX
8
Black
10
28.92
20
42.41
0
VERTEX
8
Black
10
29.22
20
42.35
0
VERTEX
8
Black
10
29.82
20
42.35
0
VERTEX
8
Black
10
30
20
42.29
0
VERTEX
8
Black
10
30.66
20
42.29
0
VERTEX
8
Black
10
31.32
20
42.35
0
VERTEX
8
Black
10
31.44
20
42.41
0
VERTEX
8
Black
10
31.62
20
42.35
0
VERTEX
8
Black
10
31.8
20
42.41
0
VERTEX
8
Black
10
32.16
20
42.41
0
VERTEX
8
Black
10
32.88
20
42.53
0
VERTEX
8
Black
10
33.66
20
42.53
0
VERTEX
8
Black
10
33.96
20
42.41
0
VERTEX
8
Black
10
34.08
20
42.23
0
VERTEX
8
Black
10
34.32
20
42.29
0
VERTEX
8
Black
10
34.56
20
42.11
0
VERTEX
8
Black
10
34.74
20
42.17
0
VERTEX
8
Black
10
35.28
20
42.11
0
VERTEX
8
Black
10
36
20
42.11
0
VERTEX
8
Black
10
36.12
20
42.17
0
VERTEX
8
Black
10
36
20
42.05
0
VERTEX
8
Black
10
36
20
42.17
0
SEQEND
0
POLYLINE
66
1
8
Black
62
0
0
VERTEX
8
Black
10
19.8
20
35.21
0
VERTEX
8
Black
10
19.8
20
35.21
0
VERTEX
8
Black
10
19.92
20
35.75
0
VERTEX
8
Black
10
20.1
20
35.75
0
VERTEX
8
Black
10
20.04
20
35.99
0
VERTEX
8
Black
10
20.22
20
36.23
0
VERTEX
8
Black
10
20.34
20
36.59
0
VERTEX
8
Black
10
20.52
20
36.83
0
VERTEX
8
Black
10
20.94
20
37.55
0
VERTEX
8
Black
10
21.06
20
37.61
0
VERTEX
8
Black
10
21.3
20
38.21
0
VERTEX
8
Black
10
21.48
20
38.27
0
VERTEX
8
Black
10
21.48
20
38.45
0
VERTEX
8
Black
10
21.72
20
38.99
0
VERTEX
8
Black
10
21.84
20
39.11
0
VERTEX
8
Black
10
21.9
20
39.41
0
VERTEX
8
Black
10
22.08
20
39.65
0
VERTEX
8
Black
10
22.2
20
39.95
0
VERTEX
8
Black
10
22.32
20
40.07
0
VERTEX
8
Black
10
22.38
20
40.37
0
VERTEX
8
Black
10
22.56
20
40.49
0
VERTEX
8
Black
10
22.44
20
40.49
0
VERTEX
8
Black
10
22.5
20
40.73
0
VERTEX
8
Black
10
22.74
20
41.15
0
VERTEX
8
Black
10
22.92
20
41.21
0
VERTEX
8
Black
10
23.04
20
41.51
0
VERTEX
8
Black
10
23.04
20
41.39
0
VERTEX
8
Black
10
23.1
20
41.75
0
VERTEX
8
Black
10
23.1
20
42.17
0
VERTEX
8
Black
10
23.22
20
42.17
0
VERTEX
8
Black
10
23.28
20
42.35
0
VERTEX
8
Black
10
23.28
20
42.17
0
VERTEX
8
Black
10
23.4
20
42.47
0
VERTEX
8
Black
10
23.52
20
42.59
0
SEQEND
0
POLYLINE
66
1
8
Blue
62
5
0
VERTEX
8
Blue
10
23.76
20
35.99
0
VERTEX
8
Blue
10
23.52
20
35.69
0
VERTEX
8
Blue
10
23.52
20
35.69
0
VERTEX
8
Blue
10
23.52
20
35.57
0
VERTEX
8
Blue
10
23.7
20
35.51
0
VERTEX
8
Blue
10
23.7
20
35.39
0
VERTEX
8
Blue
10
23.94
20
35.15
0
VERTEX
8
Blue
10
24.06
20
35.21
0
VERTEX
8
Blue
10
24.24
20
35.15
0
VERTEX
8
Blue
10
24.3
20
35.03
0
VERTEX
8
Blue
10
24.54
20
35.03
0
VERTEX
8
Blue
10
24.66
20
34.79
0
VERTEX
8
Blue
10
24.72
20
34.91
0
VERTEX
8
Blue
10
24.9
20
34.85
0
VERTEX
8
Blue
10
24.9
20
34.73
0
VERTEX
8
Blue
10
25.02
20
34.79
0
VERTEX
8
Blue
10
25.8
20
34.55
0
VERTEX
8
Blue
10
25.68
20
34.55
0
VERTEX
8
Blue
10
26.1
20
34.37
0
VERTEX
8
Blue
10
26.22
20
34.13
0
VERTEX
8
Blue
10
26.34
20
34.25
0
VERTEX
8
Blue
10
26.82
20
34.01
0
VERTEX
8
Blue
10
27
20
34.01
0
VERTEX
8
Blue
10
27.24
20
33.83
0
VERTEX
8
Blue
10
27.84
20
33.71
0
VERTEX
8
Blue
10
27.96
20
33.77
0
VERTEX
8
Blue
10
28.44
20
33.65
0
VERTEX
8
Blue
10
28.56
20
33.71
0
VERTEX
8
Blue
10
28.68
20
33.59
0
VERTEX
8
Blue
10
28.86
20
33.65
0
VERTEX
8
Blue
10
29.16
20
33.59
0
VERTEX
8
Blue
10
29.34
20
33.59
0
VERTEX
8
Blue
10
29.76
20
33.47
0
VERTEX
8
Blue
10
30
20
33.47
0
VERTEX
8
Blue
10
30.36
20
33.41
0
VERTEX
8
Blue
10
30.78
20
33.41
0
VERTEX
8
Blue
10
31.14
20
33.29
0
VERTEX
8
Blue
10
31.5
20
33.35
0
VERTEX
8
Blue
10
32.04
20
33.35
0
VERTEX
8
Blue
10
32.46
20
33.41
0
VERTEX
8
Blue
10
32.58
20
33.35
0
VERTEX
8
Blue
10
33.24
20
33.47
0
VERTEX
8
Blue
10
33.54
20
33.41
0
VERTEX
8
Blue
10
33.96
20
33.41
0
VERTEX
8
Blue
10
33.96
20
33.47
0
VERTEX
8
Blue
10
34.14
20
33.47
0
VERTEX
8
Blue
10
34.14
20
33.29
0
VERTEX
8
Blue
10
34.14
20
33.53
0
VERTEX
8
Blue
10
34.5
20
33.47
0
VERTEX
8
Blue
10
35.1
20
33.47
0
VERTEX
8
Blue
10
35.34
20
33.53
0
SEQEND
0
POLYLINE
66
1
8
Blue
62
5
0
VERTEX
8
Blue
10
19.98
20
26.63
0
VERTEX
8
Blue
10
20.28
20
27.05
0
VERTEX
8
Blue
10
20.46
20
27.17
0
VERTEX
8
Blue
10
20.34
20
27.23
0
VERTEX
8
Blue
10
20.58
20
27.89
0
VERTEX
8
Blue
10
20.58
20
28.07
0
VERTEX
8
Blue
10
20.76
20
28.61
0
VERTEX
8
Blue
10
20.94
20
28.73
0
VERTEX
8
Blue
10
20.82
20
28.79
0
VERTEX
8
Blue
10
20.82
20
28.97
0
VERTEX
8
Blue
10
21.12
20
29.87
0
VERTEX
8
Blue
10
21.18
20
30.17
0
VERTEX
8
Blue
10
21.3
20
30.29
0
VERTEX
8
Blue
10
21.3
20
30.47
0
VERTEX
8
Blue
10
21.36
20
30.59
0
VERTEX
8
Blue
10
21.36
20
30.83
0
VERTEX
8
Blue
10
21.48
20
30.95
0
VERTEX
8
Blue
10
21.48
20
31.25
0
VERTEX
8
Blue
10
21.54
20
31.49
0
VERTEX
8
Blue
10
21.6
20
31.85
0
VERTEX
8
Blue
10
21.66
20
32.09
0
VERTEX
8
Blue
10
21.66
20
32.39
0
VERTEX
8
Blue
10
21.84
20
32.93
0
VERTEX
8
Blue
10
21.96
20
33.11
0
VERTEX
8
Blue
10
21.96
20
33.41
0
VERTEX
8
Blue
10
22.2
20
34.07
0
VERTEX
8
Blue
10
22.32
20
34.07
0
VERTEX
8
Blue
10
22.32
20
34.25
0
VERTEX
8
Blue
10
22.62
20
34.91
0
VERTEX
8
Blue
10
22.74
20
35.03
0
VERTEX
8
Blue
10
22.74
20
35.15
0
VERTEX
8
Blue
10
22.92
20
35.21
0
VERTEX
8
Blue
10
22.86
20
35.09
0
VERTEX
8
Blue
10
22.86
20
35.33
0
VERTEX
8
Blue
10
23.22
20
35.45
0
VERTEX
8
Blue
10
23.1
20
35.45
0
VERTEX
8
Blue
10
23.1
20
35.45
0
VERTEX
8
Blue
10
23.1
20
35.45
0
VERTEX
8
Blue
10
23.1
20
35.33
0
VERTEX
8
Blue
10
23.04
20
35.45
0
VERTEX
8
Blue
10
23.04
20
35.45
0
VERTEX
8
Blue
10
23.04
20
35.45
0
VERTEX
8
Blue
10
23.04
20
35.21
0
VERTEX
8
Blue
10
23.1
20
35.45
0
VERTEX
8
Blue
10
23.04
20
35.33
0
SEQEND
0
POLYLINE
66
1
8
Black
62
0
0
VERTEX
8
Black
10
15.84
20
26.39
0
VERTEX
8
Black
10
15.84
20
26.39
0
VERTEX
8
Black
10
15.84
20
26.51
0
VERTEX
8
Black
10
15.96
20
26.57
0
VERTEX
8
Black
10
16.02
20
26.75
0
VERTEX
8
Black
10
16.14
20
26.81
0
VERTEX
8
Black
10
16.32
20
27.11
0
VERTEX
8
Black
10
16.5
20
27.35
0
VERTEX
8
Black
10
16.86
20
28.13
0
VERTEX
8
Black
10
17.4
20
28.91
0
VERTEX
8
Black
10
17.4
20
29.03
0
VERTEX
8
Black
10
17.58
20
29.21
0
VERTEX
8
Black
10
17.88
20
29.75
0
VERTEX
8
Black
10
17.88
20
29.87
0
VERTEX
8
Black
10
18.18
20
30.29
0
VERTEX
8
Black
10
18.18
20
30.59
0
VERTEX
8
Black
10
18.24
20
30.89
0
VERTEX
8
Black
10
18.54
20
31.31
0
VERTEX
8
Black
10
18.54
20
31.49
0
VERTEX
8
Black
10
18.78
20
32.27
0
VERTEX
8
Black
10
18.78
20
32.57
0
VERTEX
8
Black
10
18.9
20
33.11
0
VERTEX
8
Black
10
19.02
20
33.65
0
VERTEX
8
Black
10
19.26
20
33.89
0
VERTEX
8
Black
10
19.14
20
34.01
0
VERTEX
8
Black
10
19.26
20
34.31
0
VERTEX
8
Black
10
19.38
20
34.43
0
VERTEX
8
Black
10
19.32
20
34.61
0
VERTEX
8
Black
10
19.5
20
35.03
0
VERTEX
8
Black
10
19.68
20
35.03
0
VERTEX
8
Black
10
19.62
20
35.21
0
SEQEND
0
POLYLINE
66
1
8
Black
62
0
0
VERTEX
8
Black
10
16.26
20
24.17
0
VERTEX
8
Black
10
16.26
20
24.17
0
VERTEX
8
Black
10
16.44
20
24.29
0
VERTEX
8
Black
10
16.44
20
24.05
0
VERTEX
8
Black
10
16.44
20
24.35
0
VERTEX
8
Black
10
16.74
20
24.35
0
VERTEX
8
Black
10
17.4
20
24.83
0
VERTEX
8
Black
10
17.52
20
24.83
0
VERTEX
8
Black
10
17.7
20
24.95
0
VERTEX
8
Black
10
17.82
20
24.95
0
VERTEX
8
Black
10
18.18
20
25.37
0
VERTEX
8
Black
10
18.3
20
25.37
0
VERTEX
8
Black
10
18.6
20
25.79
0
VERTEX
8
Black
10
18.78
20
25.79
0
VERTEX
8
Black
10
19.44
20
26.45
0
VERTEX
8
Black
10
19.56
20
26.27
0
VERTEX
8
Black
10
19.56
20
26.57
0
VERTEX
8
Black
10
19.74
20
26.63
0
VERTEX
8
Black
10
19.74
20
26.75
0
VERTEX
8
Black
10
19.74
20
26.75
0
SEQEND
0
POLYLINE
66
1
8
Black
62
0
0
VERTEX
8
Black
10
10.53
20
-1.86
0
VERTEX
8
Black
10
10.35
20
-2.16
0
VERTEX
8
Black
10
10.41
20
-2.34
0
VERTEX
8
Black
10
10.35
20
-2.64
0
VERTEX
8
Black
10
10.35
20
-2.7
0
VERTEX
8
Black
10
10.35
20
-2.22
0
VERTEX
8
Black
10
10.29
20
-1.98
0
VERTEX
8
Black
10
10.41
20
-1.62
0
VERTEX
8
Black
10
10.71
20
-1.44
0
VERTEX
8
Black
10
10.89
20
-1.68
0
VERTEX
8
Black
10
10.89
20
-1.92
0
VERTEX
8
Black
10
10.71
20
-2.28
0
VERTEX
8
Black
10
10.83
20
-2.58
0
VERTEX
8
Black
10
11.07
20
-2.52
0
VERTEX
8
Black
10
11.61
20
-2.76
0
SEQEND
0
POLYLINE
66
1
8
Black
62
0
0
VERTEX
8
Black
10
9.27
20
-2.04
0
VERTEX
8
Black
10
9.15
20
-2.28
0
VERTEX
8
Black
10
9.15
20
-2.1
0
VERTEX
8
Black
10
8.97
20
-2.34
0
VERTEX
8
Black
10
8.97
20
-2.46
0
VERTEX
8
Black
10
9.39
20
-2.82
0
VERTEX
8
Black
10
9.57
20
-2.82
0
VERTEX
8
Black
10
9.81
20
-2.7
0
VERTEX
8
Black
10
9.87
20
-2.58
0
VERTEX
8
Black
10
9.87
20
-2.22
0
VERTEX
8
Black
10
9.69
20
-1.92
0
VERTEX
8
Black
10
9.51
20
-1.86
0
VERTEX
8
Black
10
9.21
20
-1.86
0
VERTEX
8
Black
10
9.03
20
-2.04
0
SEQEND
0
POLYLINE
66
1
8
Black
62
0
0
VERTEX
8
Black
10
8.01
20
-2.16
0
VERTEX
8
Black
10
7.71
20
-2.16
0
VERTEX
8
Black
10
7.65
20
-2.52
0
VERTEX
8
Black
10
7.83
20
-2.82
0
VERTEX
8
Black
10
8.07
20
-2.94
0
VERTEX
8
Black
10
8.43
20
-2.82
0
VERTEX
8
Black
10
8.61
20
-2.58
0
VERTEX
8
Black
10
8.61
20
-2.4
0
VERTEX
8
Black
10
8.37
20
-2.04
0
VERTEX
8
Black
10
8.01
20
-1.86
0
VERTEX
8
Black
10
7.71
20
-2.04
0
SEQEND
0
POLYLINE
66
1
8
Black
62
0
0
VERTEX
8
Black
10
6.81
20
-2.04
0
VERTEX
8
Black
10
6.63
20
-2.04
0
VERTEX
8
Black
10
6.63
20
-2.46
0
VERTEX
8
Black
10
6.51
20
-2.82
0
VERTEX
8
Black
10
7.41
20
-2.88
0
SEQEND
0
POLYLINE
66
1
8
Black
62
0
0
VERTEX
8
Black
10
5.19
20
-2.64
0
VERTEX
8
Black
10
5.13
20
-2.52
0
VERTEX
8
Black
10
5.43
20
-2.4
0
VERTEX
8
Black
10
5.73
20
-2.4
0
VERTEX
8
Black
10
5.91
20
-2.34
0
SEQEND
0
POLYLINE
66
1
8
Black
62
0
0
VERTEX
8
Black
10
4.95
20
-2.16
0
VERTEX
8
Black
10
6.03
20
-1.8
0
VERTEX
8
Black
10
6.21
20
-1.98
0
SEQEND
0
POLYLINE
66
1
8
Black
62
0
0
VERTEX
8
Black
10
5.31
20
-2.16
0
VERTEX
8
Black
10
5.19
20
-2.16
0
VERTEX
8
Black
10
5.19
20
-2.4
0
VERTEX
8
Black
10
5.25
20
-2.82
0
VERTEX
8
Black
10
5.25
20
-3.18
0
SEQEND
0
POLYLINE
66
1
8
Black
62
0
0
VERTEX
8
Black
10
2.85
20
-2.7
0
VERTEX
8
Black
10
3.27
20
-2.58
0
VERTEX
8
Black
10
3.45
20
-2.64
0
VERTEX
8
Black
10
3.87
20
-2.58
0
SEQEND
0
POLYLINE
66
1
8
Black
62
0
0
VERTEX
8
Black
10
3.45
20
-2.16
0
VERTEX
8
Black
10
3.27
20
-2.16
0
VERTEX
8
Black
10
3.21
20
-2.28
0
VERTEX
8
Black
10
2.97
20
-2.34
0
VERTEX
8
Black
10
2.85
20
-2.58
0
VERTEX
8
Black
10
2.85
20
-2.94
0
VERTEX
8
Black
10
3.81
20
-3.12
0
VERTEX
8
Black
10
3.93
20
-3.12
0
SEQEND
0
POLYLINE
66
1
8
Black
62
0
0
VERTEX
8
Black
10
2.55
20
-1.98
0
VERTEX
8
Black
10
2.31
20
-2.16
0
VERTEX
8
Black
10
2.19
20
-2.16
0
VERTEX
8
Black
10
1.83
20
-2.4
0
VERTEX
8
Black
10
1.71
20
-2.76
0
VERTEX
8
Black
10
1.77
20
-2.88
0
VERTEX
8
Black
10
2.25
20
-3.06
0
VERTEX
8
Black
10
2.61
20
-3.06
0
SEQEND
0
POLYLINE
66
1
8
Black
62
0
0
VERTEX
8
Black
10
1.41
20
-2.04
0
VERTEX
8
Black
10
1.29
20
-2.58
0
VERTEX
8
Black
10
1.29
20
-2.94
0
VERTEX
8
Black
10
1.41
20
-2.88
0
VERTEX
8
Black
10
1.47
20
-3.12
0
SEQEND
0
POLYLINE
66
1
8
Black
62
0
0
VERTEX
8
Black
10
-0.51
20
-0.78
0
VERTEX
8
Black
10
-0.57
20
-0.66
0
VERTEX
8
Black
10
-0.51
20
-0.6
0
VERTEX
8
Black
10
-0.57
20
-0.9
0
VERTEX
8
Black
10
-0.69
20
-0.84
0
VERTEX
8
Black
10
-0.69
20
-0.72
0
VERTEX
8
Black
10
-0.45
20
-0.36
0
VERTEX
8
Black
10
-0.27
20
-0.66
0
VERTEX
8
Black
10
-0.33
20
-0.78
0
VERTEX
8
Black
10
-0.21
20
-0.78
0
VERTEX
8
Black
10
-0.15
20
-0.66
0
VERTEX
8
Black
10
-0.03
20
-0.72
0
SEQEND
0
POLYLINE
66
1
8
Black
62
0
0
VERTEX
8
Black
10
-0.51
20
-1.14
0
VERTEX
8
Black
10
-0.45
20
-1.26
0
VERTEX
8
Black
10
-0.39
20
-1.02
0
VERTEX
8
Black
10
-0.45
20
-0.9
0
VERTEX
8
Black
10
-0.15
20
-0.72
0
VERTEX
8
Black
10
-0.03
20
-0.6
0
VERTEX
8
Black
10
-0.09
20
-0.96
0
VERTEX
8
Black
10
0.03
20
-0.96
0
VERTEX
8
Black
10
-0.03
20
-0.84
0
VERTEX
8
Black
10
0.03
20
-0.6
0
VERTEX
8
Black
10
0.15
20
-0.54
0
VERTEX
8
Black
10
0.39
20
-0.54
0
VERTEX
8
Black
10
0.57
20
-0.6
0
VERTEX
8
Black
10
0.51
20
-0.48
0
VERTEX
8
Black
10
0.57
20
-0.36
0
VERTEX
8
Black
10
0.93
20
-0.6
0
VERTEX
8
Black
10
1.23
20
-0.6
0
VERTEX
8
Black
10
1.23
20
-0.48
0
VERTEX
8
Black
10
1.41
20
-0.42
0
VERTEX
8
Black
10
1.59
20
-0.6
0
VERTEX
8
Black
10
1.71
20
-0.3
0
VERTEX
8
Black
10
1.89
20
-0.18
0
VERTEX
8
Black
10
2.01
20
-0.18
0
VERTEX
8
Black
10
2.07
20
-0.36
0
VERTEX
8
Black
10
2.07
20
-0.18
0
VERTEX
8
Black
10
2.25
20
-0.18
0
VERTEX
8
Black
10
2.49
20
-0.06
0
VERTEX
8
Black
10
2.67
20
0.12
0
VERTEX
8
Black
10
2.79
20
0
0
VERTEX
8
Black
10
3.27
20
0.24
0
VERTEX
8
Black
10
3.39
20
0.24
0
VERTEX
8
Black
10
3.51
20
0
0
VERTEX
8
Black
10
3.87
20
0.3
0
VERTEX
8
Black
10
4.17
20
0.18
0
VERTEX
8
Black
10
4.59
20
0.24
0
VERTEX
8
Black
10
4.89
20
0.18
0
VERTEX
8
Black
10
5.07
20
0.42
0
VERTEX
8
Black
10
5.07
20
0.3
0
VERTEX
8
Black
10
5.55
20
0.18
0
SEQEND
0
POLYLINE
66
1
8
Black
62
0
0
VERTEX
8
Black
10
10.41
20
20.82
0
VERTEX
8
Black
10
10.29
20
20.58
0
VERTEX
8
Black
10
10.29
20
20.76
0
VERTEX
8
Black
10
9.93
20
20.4
0
VERTEX
8
Black
10
9.75
20
19.98
0
VERTEX
8
Black
10
9.15
20
18.48
0
VERTEX
8
Black
10
8.97
20
18
0
VERTEX
8
Black
10
8.97
20
17.82
0
VERTEX
8
Black
10
8.85
20
17.7
0
VERTEX
8
Black
10
8.73
20
17.04
0
VERTEX
8
Black
10
8.73
20
16.74
0
VERTEX
8
Black
10
8.55
20
16.14
0
VERTEX
8
Black
10
8.31
20
15.72
0
VERTEX
8
Black
10
8.31
20
15.48
0
VERTEX
8
Black
10
8.01
20
15
0
VERTEX
8
Black
10
7.95
20
14.52
0
VERTEX
8
Black
10
7.83
20
14.28
0
VERTEX
8
Black
10
7.77
20
13.92
0
VERTEX
8
Black
10
7.59
20
13.44
0
VERTEX
8
Black
10
7.59
20
13.02
0
VERTEX
8
Black
10
7.47
20
12.9
0
VERTEX
8
Black
10
7.47
20
12.66
0
VERTEX
8
Black
10
7.11
20
11.76
0
VERTEX
8
Black
10
7.11
20
11.58
0
VERTEX
8
Black
10
6.99
20
11.46
0
VERTEX
8
Black
10
6.99
20
11.16
0
VERTEX
8
Black
10
6.69
20
10.44
0
VERTEX
8
Black
10
6.69
20
10.26
0
VERTEX
8
Black
10
6.39
20
9.36
0
VERTEX
8
Black
10
6.27
20
9.18
0
VERTEX
8
Black
10
6.03
20
7.86
0
VERTEX
8
Black
10
6.03
20
7.68
0
VERTEX
8
Black
10
5.85
20
7.2
0
VERTEX
8
Black
10
5.91
20
7.14
0
VERTEX
8
Black
10
5.79
20
6.78
0
VERTEX
8
Black
10
5.85
20
6.66
0
VERTEX
8
Black
10
5.73
20
6.36
0
VERTEX
8
Black
10
5.91
20
6.18
0
VERTEX
8
Black
10
5.79
20
6.06
0
VERTEX
8
Black
10
5.79
20
5.76
0
VERTEX
8
Black
10
5.55
20
4.98
0
VERTEX
8
Black
10
5.55
20
4.8
0
VERTEX
8
Black
10
5.61
20
4.68
0
VERTEX
8
Black
10
5.61
20
4.38
0
VERTEX
8
Black
10
5.79
20
3.84
0
VERTEX
8
Black
10
5.79
20
3.36
0
VERTEX
8
Black
10
5.67
20
3
0
VERTEX
8
Black
10
5.73
20
2.7
0
VERTEX
8
Black
10
5.73
20
2.52
0
VERTEX
8
Black
10
5.67
20
2.22
0
VERTEX
8
Black
10
5.61
20
1.98
0
VERTEX
8
Black
10
5.67
20
1.56
0
VERTEX
8
Black
10
5.67
20
1.2
0
VERTEX
8
Black
10
5.61
20
1.08
0
VERTEX
8
Black
10
5.67
20
0.96
0
VERTEX
8
Black
10
5.55
20
0.78
0
VERTEX
8
Black
10
5.61
20
0.6
0
VERTEX
8
Black
10
5.61
20
0.12
0
VERTEX
8
Black
10
5.49
20
-0.18
0
VERTEX
8
Black
10
5.49
20
-0.18
0
SEQEND
0
POLYLINE
66
1
8
Black
62
0
0
VERTEX
8
Black
10
5.37
20
22.14
0
VERTEX
8
Black
10
4.65
20
20.76
0
VERTEX
8
Black
10
4.41
20
20.46
0
VERTEX
8
Black
10
4.35
20
20.04
0
VERTEX
8
Black
10
4.35
20
19.86
0
VERTEX
8
Black
10
4.17
20
19.14
0
VERTEX
8
Black
10
3.51
20
17.28
0
VERTEX
8
Black
10
3.45
20
16.92
0
VERTEX
8
Black
10
3.15
20
16.44
0
VERTEX
8
Black
10
3.09
20
16.2
0
VERTEX
8
Black
10
3.15
20
16.08
0
VERTEX
8
Black
10
3.15
20
15.54
0
VERTEX
8
Black
10
3.21
20
15.3
0
VERTEX
8
Black
10
3.09
20
15.12
0
VERTEX
8
Black
10
3.09
20
15
0
VERTEX
8
Black
10
2.97
20
14.76
0
VERTEX
8
Black
10
2.91
20
14.4
0
VERTEX
8
Black
10
2.79
20
13.92
0
VERTEX
8
Black
10
2.67
20
13.74
0
VERTEX
8
Black
10
2.67
20
13.56
0
VERTEX
8
Black
10
2.49
20
13.26
0
VERTEX
8
Black
10
2.43
20
12.78
0
VERTEX
8
Black
10
2.43
20
12.48
0
VERTEX
8
Black
10
2.25
20
11.94
0
VERTEX
8
Black
10
2.25
20
11.64
0
VERTEX
8
Black
10
1.89
20
10.8
0
VERTEX
8
Black
10
1.77
20
10.68
0
VERTEX
8
Black
10
1.77
20
10.56
0
VERTEX
8
Black
10
1.89
20
10.44
0
VERTEX
8
Black
10
1.71
20
10.38
0
VERTEX
8
Black
10
1.71
20
9.84
0
VERTEX
8
Black
10
1.59
20
9.54
0
VERTEX
8
Black
10
1.47
20
9.42
0
VERTEX
8
Black
10
1.47
20
9.24
0
VERTEX
8
Black
10
1.29
20
9
0
VERTEX
8
Black
10
1.29
20
8.82
0
VERTEX
8
Black
10
1.05
20
8.16
0
VERTEX
8
Black
10
1.05
20
7.98
0
VERTEX
8
Black
10
0.87
20
7.74
0
VERTEX
8
Black
10
0.87
20
7.62
0
VERTEX
8
Black
10
0.57
20
6.96
0
VERTEX
8
Black
10
0.57
20
6.66
0
VERTEX
8
Black
10
0.39
20
6
0
VERTEX
8
Black
10
0.27
20
5.22
0
VERTEX
8
Black
10
0.09
20
4.8
0
VERTEX
8
Black
10
0.03
20
4.02
0
VERTEX
8
Black
10
-0.09
20
3.78
0
VERTEX
8
Black
10
-0.09
20
3.12
0
VERTEX
8
Black
10
-0.15
20
2.46
0
VERTEX
8
Black
10
-0.15
20
2.28
0
VERTEX
8
Black
10
-0.21
20
2.16
0
VERTEX
8
Black
10
-0.15
20
2.04
0
VERTEX
8
Black
10
-0.27
20
1.62
0
VERTEX
8
Black
10
-0.15
20
1.32
0
VERTEX
8
Black
10
-0.33
20
1.26
0
VERTEX
8
Black
10
-0.33
20
0.72
0
VERTEX
8
Black
10
-0.45
20
0.6
0
VERTEX
8
Black
10
-0.51
20
0.06
0
VERTEX
8
Black
10
-0.51
20
-0.12
0
VERTEX
8
Black
10
-0.69
20
-0.54
0
VERTEX
8
Black
10
-0.69
20
-0.72
0
VERTEX
8
Black
10
-0.57
20
-0.72
0
SEQEND
0
POLYLINE
66
1
8
Black
62
0
0
VERTEX
8
Black
10
5.43
20
22.38
0
VERTEX
8
Black
10
5.43
20
22.38
0
SEQEND
0
POLYLINE
66
1
8
Black
62
0
0
VERTEX
8
Black
10
9.09
20
24.54
0
VERTEX
8
Black
10
8.97
20
24.42
0
VERTEX
8
Black
10
8.67
20
24.6
0
VERTEX
8
Black
10
8.25
20
24.42
0
VERTEX
8
Black
10
8.13
20
24.18
0
VERTEX
8
Black
10
7.77
20
24.18
0
VERTEX
8
Black
10
7.65
20
24
0
VERTEX
8
Black
10
7.35
20
23.82
0
VERTEX
8
Black
10
7.23
20
23.82
0
VERTEX
8
Black
10
6.81
20
23.52
0
VERTEX
8
Black
10
6.57
20
23.22
0
VERTEX
8
Black
10
6.27
20
23.22
0
VERTEX
8
Black
10
6.03
20
22.8
0
VERTEX
8
Black
10
5.67
20
22.5
0
VERTEX
8
Black
10
5.55
20
22.5
0
VERTEX
8
Black
10
5.37
20
22.32
0
VERTEX
8
Black
10
5.43
20
22.2
0
VERTEX
8
Black
10
5.37
20
22.02
0
SEQEND
0
POLYLINE
66
1
8
Black
62
0
0
VERTEX
8
Black
10
15.87
20
24.54
0
VERTEX
8
Black
10
15.87
20
24.48
0
VERTEX
8
Black
10
15.75
20
24.42
0
VERTEX
8
Black
10
15.75
20
24.3
0
VERTEX
8
Black
10
15.63
20
24.3
0
VERTEX
8
Black
10
15.21
20
23.94
0
VERTEX
8
Black
10
15.09
20
23.94
0
VERTEX
8
Black
10
15.03
20
23.7
0
VERTEX
8
Black
10
15.03
20
23.88
0
VERTEX
8
Black
10
14.79
20
23.82
0
VERTEX
8
Black
10
14.73
20
23.64
0
VERTEX
8
Black
10
14.67
20
23.82
0
VERTEX
8
Black
10
14.55
20
23.82
0
VERTEX
8
Black
10
14.43
20
23.64
0
VERTEX
8
Black
10
14.31
20
23.64
0
VERTEX
8
Black
10
14.25
20
23.4
0
VERTEX
8
Black
10
14.19
20
23.58
0
VERTEX
8
Black
10
14.07
20
23.4
0
VERTEX
8
Black
10
14.01
20
23.52
0
VERTEX
8
Black
10
13.35
20
23.28
0
VERTEX
8
Black
10
12.99
20
23.04
0
VERTEX
8
Black
10
12.51
20
22.92
0
VERTEX
8
Black
10
12.45
20
22.74
0
VERTEX
8
Black
10
12.15
20
22.74
0
VERTEX
8
Black
10
11.97
20
22.62
0
VERTEX
8
Black
10
11.49
20
22.56
0
VERTEX
8
Black
10
11.13
20
22.32
0
VERTEX
8
Black
10
10.83
20
22.32
0
VERTEX
8
Black
10
10.65
20
21.96
0
VERTEX
8
Black
10
10.71
20
22.14
0
VERTEX
8
Black
10
10.65
20
21.96
0
VERTEX
8
Black
10
10.65
20
22.14
0
VERTEX
8
Black
10
10.53
20
21.78
0
VERTEX
8
Black
10
10.53
20
21.96
0
VERTEX
8
Black
10
10.59
20
21.78
0
VERTEX
8
Black
10
10.53
20
21.6
0
VERTEX
8
Black
10
10.53
20
21.78
0
VERTEX
8
Black
10
10.59
20
21.6
0
VERTEX
8
Black
10
10.41
20
21.54
0
VERTEX
8
Black
10
10.29
20
21.12
0
VERTEX
8
Black
10
10.23
20
21.12
0
VERTEX
8
Black
10
10.23
20
20.64
0
SEQEND
0
POLYLINE
66
1
8
Black
62
0
0
VERTEX
8
Black
10
8.61
20
24.54
0
VERTEX
8
Black
10
9.09
20
24.78
0
VERTEX
8
Black
10
9.93
20
24.9
0
VERTEX
8
Black
10
10.05
20
24.78
0
VERTEX
8
Black
10
10.23
20
24.9
0
VERTEX
8
Black
10
10.41
20
24.9
0
VERTEX
8
Black
10
10.95
20
25.08
0
VERTEX
8
Black
10
11.13
20
25.02
0
VERTEX
8
Black
10
11.25
20
25.14
0
VERTEX
8
Black
10
11.61
20
25.2
0
VERTEX
8
Black
10
12.21
20
25.32
0
VERTEX
8
Black
10
12.39
20
25.32
0
VERTEX
8
Black
10
12.81
20
25.5
0
VERTEX
8
Black
10
12.99
20
25.5
0
VERTEX
8
Black
10
13.35
20
25.68
0
VERTEX
8
Black
10
13.71
20
25.74
0
VERTEX
8
Black
10
14.13
20
25.86
0
VERTEX
8
Black
10
14.55
20
25.86
0
VERTEX
8
Black
10
14.67
20
25.92
0
VERTEX
8
Black
10
14.97
20
25.86
0
VERTEX
8
Black
10
15.15
20
25.92
0
VERTEX
8
Black
10
15.21
20
25.74
0
VERTEX
8
Black
10
15.21
20
25.98
0
VERTEX
8
Black
10
15.57
20
26.04
0
VERTEX
8
Black
10
15.69
20
26.04
0
VERTEX
8
Black
10
15.75
20
26.22
0
SEQEND
0
LINE
8
Shots
62
1
10
57.04
20
49.494
11
68.476
21
68.72
0
CIRCLE
8
Shots
62
1
10
68.476
20
68.72
40
0.1
0
TEXT
8
Label
40
1.5
1
1.7
10
68.476
20
68.72
0
LINE
8
XSect
62
1
6
DASH
10
68.476
20
68.72
11
68.582
21
68.638
0
LINE
8
XSect
62
1
6
DASH
10
68.476
20
68.72
11
63.026
21
68.464
0
LINE
8
XSect
62
1
10
68.476
20
68.72
11
68.166
21
66.702
0
LINE
8
Shots
62
1
10
36.076
20
35.524
11
57.04
21
49.494
0
CIRCLE
8
Shots
62
1
10
57.04
20
49.494
40
0.1
0
TEXT
8
Label
40
1.5
1
1.6
10
57.04
20
49.494
0
LINE
8
XSect
62
1
6
DASH
10
57.04
20
49.494
11
59.662
21
49.494
0
LINE
8
XSect
62
1
6
DASH
10
57.04
20
49.494
11
55.972
21
49.494
0
LINE
8
XSect
62
1
10
57.04
20
49.494
11
57.04
21
56.294
0
LINE
8
XSect
62
1
10
57.04
20
49.494
11
57.04
21
47.094
0
LINE
8
Shots
62
1
10
23.196
20
38.162
11
36.076
21
35.524
0
CIRCLE
8
Shots
62
1
10
36.076
20
35.524
40
0.1
0
TEXT
8
Label
40
1.5
1
1.5
10
36.076
20
35.524
0
LINE
8
XSect
62
1
10
36.076
20
35.524
11
39.35
21
36.464
0
LINE
8
XSect
62
1
10
36.076
20
35.524
11
36.228
21
42.26
0
LINE
8
XSect
62
1
10
36.076
20
35.524
11
35.496
21
33.498
0
LINE
8
Shots
62
1
10
19.594
20
29.514
11
23.196
21
38.162
0
CIRCLE
8
Shots
62
1
10
23.196
20
38.162
40
0.1
0
TEXT
8
Label
40
1.5
1
1.4
10
23.196
20
38.162
0
LINE
8
Shots
62
1
10
15.696
20
24.774
11
19.594
21
29.514
0
CIRCLE
8
Shots
62
1
10
19.594
20
29.514
40
0.1
0
TEXT
8
Label
40
1.5
1
1.3
10
19.594
20
29.514
0
LINE
8
XSect
62
1
6
DASH
10
19.594
20
29.514
11
19.74
21
29.514
0
LINE
8
XSect
62
1
6
DASH
10
19.594
20
29.514
11
19.59
21
29.514
0
LINE
8
XSect
62
1
10
19.594
20
29.514
11
19.594
21
35.314
0
LINE
8
XSect
62
1
10
19.594
20
29.514
11
19.594
21
26.514
0
LINE
8
Shots
62
1
10
8.58
20
22.036
11
15.696
21
24.774
0
CIRCLE
8
Shots
62
1
10
15.696
20
24.774
40
0.1
0
TEXT
8
Label
40
1.5
1
1.2
10
15.696
20
24.774
0
LINE
8
XSect
62
1
6
DASH
10
15.696
20
24.774
11
16.27
21
24.774
0
LINE
8
XSect
62
1
6
DASH
10
15.696
20
24.774
11
15.054
21
24.774
0
LINE
8
XSect
62
1
10
15.696
20
24.774
11
15.696
21
26.014
0
LINE
8
Shots
62
1
10
0
20
0
11
8.58
21
22.036
0
CIRCLE
8
Shots
62
1
10
8.58
20
22.036
40
0.1
0
TEXT
8
Label
40
1.5
1
1.1
10
8.58
20
22.036
0
LINE
8
XSect
62
1
6
DASH
10
8.58
20
22.036
11
8.062
21
22.036
0
LINE
8
XSect
62
1
10
8.58
20
22.036
11
10.526
21
22.036
0
LINE
8
XSect
62
1
10
8.58
20
22.036
11
8.58
21
24.676
0
ENDSEC
0
EOF
